<?xml version="1.0" encoding="iso-8859-1"?>
<!-- Generator: Adobe Illustrator 19.0.0, SVG Export Plug-In . SVG Version: 6.00 Build 0)  -->
<svg version="1.1" id="Capa_1" xmlns="http://www.w3.org/2000/svg" xmlns:xlink="http://www.w3.org/1999/xlink" x="0px" y="0px"
	 viewBox="0 0 513.202 513.202" style="enable-background:new 0 0 513.202 513.202;" xml:space="preserve">
<g>
	<g>
		<path d="M504.295,82.454l1.42-1.42c9.983-10.003,9.983-26.201,0-36.204l-36.2-36.208c-10.01-9.974-26.201-9.972-36.208,0.004
			l-1.422,1.422l-6.036-6.035c-3.332-3.332-8.735-3.332-12.067,0c-3.332,3.332-3.332,8.735,0,12.067l6.036,6.035l-12.069,12.071
			l-6.034-6.035c-3.332-3.332-8.734-3.332-12.067,0c-3.332,3.332-3.332,8.734,0,12.067l6.035,6.036l-0.002,0.002
			c-8.549,8.611-11.866,21.123-8.706,32.839L270.366,195.703c-6.825-7.246-14.446-13.699-22.718-19.236
			c-26.792-17.467-66.275-18.346-85.967,10.333c-6.21,10.229-10.499,21.505-12.658,33.275c-3.417,13.871-6.367,25.85-15.458,32.35
			c-9.366,4.913-19.918,7.11-30.467,6.342c-4.092,0.15-8.175,0.3-12.167,0.663c-35.484,3.268-66.603,25.035-81.842,57.246
			c-12.513,30.579-12.092,64.925,1.167,95.188c15.83,39.013,46.093,70.421,84.492,87.688c17.711,8.072,36.92,12.333,56.383,12.508
			c6.881,0.014,13.748-0.601,20.517-1.837c26.446-4.353,49.815-19.695,64.325-42.229c9.99-17.266,15.189-36.886,15.058-56.833
			c0.1-2.779,0.117-5.642,0.125-8.533c-0.111-5.622,0.162-11.245,0.817-16.829c0.469-5.503,2.383-10.784,5.55-15.308
			c6.942-9.367,20.308-12.071,34.458-14.933c5.558-1.125,11.308-2.288,16.808-3.896c14.15-4.117,29.558-14.492,30.35-31.275
			c0.833-17.479-15.092-31.067-31.225-35.45c-2.733-0.75-5.6-1.375-8.492-2.004c-5.2-0.882-10.256-2.465-15.03-4.707l10.126-10.126
			l0.013-0.009l0.008-0.012l140.687-140.688c11.726,3.336,24.337-0.014,32.862-8.729l0-0.001l6.033,6.034
			c3.353,3.311,8.756,3.276,12.066-0.077c3.281-3.323,3.281-8.666,0-11.989l-6.033-6.034l12.071-12.071l6.036,6.034
			c3.332,3.332,8.734,3.332,12.067,0c3.332-3.332,3.332-8.734,0-12.067L504.295,82.454z M295.798,299.605
			c2.592,0.563,5.158,1.117,7.625,1.792c9.475,2.575,19.058,10.079,18.667,18.175c-0.367,7.817-9.958,13.342-18.075,15.7
			c-4.817,1.408-9.967,2.45-15.417,3.554c-15.908,3.217-33.942,6.867-44.775,21.483c-4.926,6.83-7.949,14.847-8.758,23.229
			c-0.776,6.312-1.102,12.671-0.975,19.029c-0.009,2.704-0.017,5.379-0.117,8.083c0.192,16.952-4.131,33.65-12.525,48.379
			c-11.975,18.421-31.182,30.918-52.875,34.404c-22.731,3.608-46.022,0.31-66.859-9.467c-34.251-15.622-61.284-43.677-75.625-78.484
			c-11.517-25.939-12.04-55.436-1.45-81.767c12.657-26.65,38.45-44.632,67.833-47.292c3.675-0.333,7.458-0.467,11.25-0.604
			c13.896,0.815,27.723-2.488,39.75-9.496c14.25-10.192,18.25-26.446,22.125-42.167c1.734-9.749,5.167-19.118,10.142-27.679
			c13.808-20.096,42.675-18.692,62.6-5.704c7.271,4.896,13.965,10.599,19.955,16.999l-60.314,60.314
			c-3.332,3.33-3.333,8.732-0.003,12.064c0.001,0.001,0.002,0.002,0.003,0.003l36.208,36.204c3.33,3.332,8.732,3.333,12.064,0.003
			c0.001-0.001,0.002-0.002,0.003-0.003l25.757-25.757C279.208,295.268,287.318,298.338,295.798,299.605z M240.221,249.982
			l12.068-12.068l24.141,24.138l-12.07,12.07L240.221,249.982z M252.292,286.19l-12.069,12.069l-24.142-24.137l12.072-12.073
			L252.292,286.19z M288.495,249.987l-24.141-24.139l12.069-12.069l24.141,24.138L288.495,249.987z M312.631,225.852l-24.141-24.139
			l10.647-10.647l24.139,24.141L312.631,225.852z M335.343,203.14l-24.139-24.141l12.07-12.07l24.141,24.139L335.343,203.14z
			 M359.481,179.002l-24.141-24.139l12.072-12.072l24.139,24.141L359.481,179.002z M383.618,154.865l-24.139-24.141l12.067-12.067
			l24.139,24.141L383.618,154.865z M407.751,130.732l-24.139-24.141l12.069-12.069l24.142,24.138L407.751,130.732z M493.648,68.967
			l-1.422,1.422l-6.036-6.034c-3.332-3.332-8.734-3.332-12.067,0c-3.332,3.332-3.332,8.735,0,12.067l6.036,6.034l-12.068,12.068
			l-6.035-6.036c-3.332-3.332-8.734-3.332-12.067,0c-3.332,3.332-3.332,8.734,0,12.067l6.035,6.036l-0.002,0.002
			c-6.755,6.442-17.378,6.442-24.133,0l-12.071-12.069l-12.074-12.072c-6.647-6.67-6.646-17.461,0.003-24.13l0.001-0.001
			l6.033,6.034c3.332,3.332,8.735,3.332,12.067,0s3.332-8.735,0-12.067l-6.033-6.034l12.072-12.072l6.036,6.035
			c3.332,3.332,8.735,3.332,12.067,0c3.332-3.332,3.332-8.734,0-12.067l-6.036-6.035l1.419-1.419
			c3.337-3.326,8.735-3.328,12.075-0.004l36.2,36.204C496.973,60.233,496.973,65.631,493.648,68.967z"/>
	</g>
</g>
<g>
	<g>
		<path d="M199.198,352.563l-36.2-36.204c-9.984-10.012-26.194-10.034-36.206-0.05c-10.012,9.984-10.034,26.194-0.05,36.206
			c0.016,0.016,0.032,0.032,0.048,0.048l36.208,36.204v0.004c9.999,9.996,26.208,9.995,36.204-0.004
			C209.199,378.769,209.197,362.56,199.198,352.563z M187.131,376.697c-3.332,3.332-8.735,3.332-12.067,0l-36.2-36.196
			c-3.332-3.334-3.335-8.736-0.008-12.075c3.338-3.325,8.736-3.325,12.075,0l36.2,36.204
			C190.463,367.962,190.463,373.365,187.131,376.697z"/>
	</g>
</g>
<g>
	<g>
		<path d="M138.857,412.901l-36.2-36.2c-3.332-3.332-8.735-3.332-12.067,0c-3.332,3.332-3.332,8.734,0,12.067l36.2,36.2
			c3.332,3.332,8.734,3.332,12.067,0C142.189,421.635,142.189,416.233,138.857,412.901z"/>
	</g>
</g>
<g>
	<g>
		<path d="M199.283,425.048c-0.031-0.031-0.062-0.063-0.093-0.093c-3.389-3.158-8.644-3.158-12.033,0
			c-3.374,3.323-3.416,8.752-0.093,12.127c3.323,3.375,8.752,3.416,12.127,0.093C202.564,433.852,202.606,428.423,199.283,425.048z"
			/>
	</g>
</g>
<g>
	<g>
		<path d="M163.007,437.072c-0.406-0.395-0.834-0.767-1.283-1.112c-0.508-0.254-1.025-0.508-1.533-0.767
			c-0.498-0.207-1.011-0.378-1.533-0.513c-2.798-0.499-5.663,0.393-7.683,2.392c-3.322,3.309-3.332,8.684-0.023,12.006
			c1.589,1.595,3.747,2.494,5.998,2.498c0.575,0.028,1.15-0.03,1.708-0.171c0.521-0.102,1.034-0.244,1.533-0.425
			c0.529-0.251,1.041-0.536,1.533-0.854c0.469-0.287,0.9-0.631,1.283-1.025c1.604-1.606,2.496-3.789,2.475-6.059
			C165.501,440.799,164.608,438.643,163.007,437.072z"/>
	</g>
</g>
<g>
</g>
<g>
</g>
<g>
</g>
<g>
</g>
<g>
</g>
<g>
</g>
<g>
</g>
<g>
</g>
<g>
</g>
<g>
</g>
<g>
</g>
<g>
</g>
<g>
</g>
<g>
</g>
<g>
</g>
</svg>
